<svg width="261" height="57" viewBox="0 0 261 57" fill="none" xmlns="http://www.w3.org/2000/svg">
<g clip-path="url(#clip0_1007_38000)">
<path d="M0.0868663 25.0557C0.347477 23.3703 1.98064 22.0497 3.6833 22.0845C9.41674 22.0845 15.1676 22.0671 20.9184 22.1019C17.5478 31.1372 14.1599 40.1726 10.7719 49.2079C8.79127 48.8951 6.88012 47.592 6.30678 45.6111C4.29139 39.4775 2.31075 33.3613 0.312729 27.2451C0.0868663 26.55 -0.121622 25.7855 0.0868663 25.0557ZM29.9529 5.94248C30.5783 5.87298 31.2038 5.8556 31.8293 5.87298H61.5389C63.3111 5.87298 64.979 6.72439 66.0041 8.16657C66.8206 9.31336 67.1681 10.7208 66.977 12.1108C66.8554 12.6669 66.6469 13.2229 66.4732 13.7789C62.6856 23.9263 58.8981 34.0737 55.0932 44.2211C54.8152 45.0551 54.4677 45.8718 54.0507 46.6711C53.0951 48.1654 51.4967 49.1037 49.7246 49.2079C48.3173 49.2427 46.91 49.1732 45.5027 49.2427C46.91 48.8604 48.1609 47.7831 48.5084 46.3409C48.6474 45.0899 48.1783 43.8736 47.796 42.7094C46.1108 37.5662 44.4429 32.423 42.7749 27.2798C42.4101 26.2373 42.1669 25.1078 41.4545 24.2217C40.3426 22.8143 38.6573 22.015 36.8678 22.0497C31.5513 22.0497 26.2522 22.0497 20.9357 22.0497C22.1867 18.7831 23.3855 15.4991 24.619 12.2151C25.0881 10.9988 25.4877 9.76513 26.0958 8.61833C26.9124 7.17615 28.3197 6.20312 29.9529 5.94248ZM235.488 3.7879C242.889 2.51947 250.273 1.2163 257.675 0C257.64 2.13721 257.64 4.27442 257.675 6.41162C250.291 7.73217 242.872 8.94847 235.488 10.2343C235.505 8.09706 235.488 5.94248 235.488 3.7879Z" fill="#A6C101"/>
<path d="M245.374 19.9473C241.083 20.6771 238.181 24.6909 238.824 29C239.241 32.006 241.534 34.6471 244.453 35.4638C247.563 36.4194 251.194 35.1858 253.088 32.5447C255.034 29.9904 255.156 26.2373 253.401 23.5441C251.75 20.8682 248.449 19.3913 245.374 19.9473ZM240.996 14.5608C247.007 11.9719 253.991 13.7963 257.988 18.9569C259.864 21.3721 260.924 24.326 260.993 27.3841C261.011 32.1972 260.993 37.0102 260.993 41.8233C258.874 41.8059 256.754 41.8407 254.634 41.8059C254.634 41.1109 254.634 40.3985 254.652 39.7034C251.368 41.8928 247.302 42.6399 243.445 41.7712C238.355 40.6591 234.098 36.5237 232.795 31.4848C230.936 24.5866 234.428 17.3757 240.996 14.5608ZM202.634 19.9473C201.279 20.1732 200.01 20.7466 198.933 21.6154C196.744 23.3877 195.667 26.1852 196.084 28.9653C196.501 32.0234 198.864 34.6819 201.835 35.4638C204.927 36.3673 208.471 35.1336 210.348 32.5099C212.259 29.9731 212.415 26.2894 210.73 23.6136C209.114 20.903 205.761 19.3739 202.634 19.9473ZM197.821 14.752C204.997 11.3811 213.562 14.4913 216.915 21.6675C217.784 23.5093 218.236 25.5249 218.27 27.5579C218.288 32.3188 218.27 37.0797 218.27 41.8233C216.151 41.8059 214.014 41.8407 211.894 41.8059C211.894 41.0935 211.894 40.3985 211.911 39.6861C208.68 41.9102 204.51 42.6399 200.688 41.7538C195.58 40.6244 191.288 36.4368 190.038 31.3631C188.283 24.6735 191.566 17.7058 197.821 14.752ZM121.74 20.0516C117.466 21.0941 114.86 25.4033 115.902 29.6603C116.945 33.9173 121.254 36.5411 125.51 35.4985C129.784 34.456 132.39 30.1468 131.348 25.8898C130.879 23.9611 129.697 22.2583 128.029 21.1636C126.188 19.9473 123.912 19.5303 121.74 20.0516ZM120.889 13.6399C128.69 12.1283 136.23 17.2193 137.759 25.0036C139.288 32.7879 134.18 40.3463 126.396 41.8754C118.595 43.3871 111.055 38.296 109.526 30.5117C108.657 26.0462 109.943 21.4416 113.018 18.0707C115.103 15.7945 117.866 14.2307 120.889 13.6399ZM92.1173 15.0474C96.5998 12.6148 102.368 12.8754 106.607 15.6729C107.476 16.2289 108.275 16.8892 108.988 17.6363C107.459 19.1133 105.964 20.6423 104.47 22.154C101.36 19.0611 96.3392 19.0611 93.2292 22.1714C91.5787 23.8221 90.7447 26.1157 90.9359 28.4266C91.1096 31.311 93.0555 33.9695 95.6963 35.0989C98.6152 36.4194 102.281 35.707 104.505 33.3961C105.999 34.8904 107.528 36.3847 108.988 37.9138C106.399 40.4506 102.872 42.0318 99.2407 42.1013C91.3181 42.3272 84.7159 36.1067 84.4727 28.1834C84.4727 28.027 84.4727 27.888 84.4727 27.7316C84.4032 22.5363 87.4958 17.4626 92.1173 15.0474ZM222.475 13.3967C224.595 13.3793 226.732 13.3967 228.851 13.3967C228.834 23.0402 228.851 32.701 228.834 42.3445C228.782 50.1984 222.423 56.5579 214.57 56.5926C214.57 54.4902 214.57 52.3877 214.57 50.3026C215.23 50.1462 215.994 50.181 216.672 49.9551C219.956 49.0863 222.44 45.9239 222.492 42.5357C222.458 32.8053 222.51 23.1097 222.475 13.3967ZM141.39 13.3098C143.51 13.3098 145.629 13.3098 147.749 13.3098C147.749 14.1265 147.749 14.9431 147.749 15.7598C154.369 11.3985 163.264 13.2229 167.625 19.8431C168.824 21.6501 169.588 23.7005 169.866 25.855C170.092 26.9845 169.97 28.1486 170.005 29.2954C170.005 33.4656 170.005 37.6531 170.005 41.8233H163.629C163.629 37.0623 163.629 32.3014 163.629 27.5405C163.594 24.1348 161.075 20.9551 157.774 20.1037C153.535 18.9569 149.156 21.4416 148.01 25.6813C147.853 26.2894 147.749 26.8976 147.732 27.5231C147.749 32.284 147.732 37.045 147.732 41.8059H141.373C141.39 32.3362 141.39 22.8317 141.39 13.3098ZM173.445 9.24389C175.582 9.22652 177.719 9.22652 179.856 9.24389C179.804 10.5992 179.839 11.9371 179.839 13.2924C181.246 13.2924 182.654 13.2924 184.061 13.2924C184.061 15.4123 184.061 17.5495 184.061 19.6693C182.654 19.6693 181.246 19.6693 179.822 19.6693C179.822 22.4147 179.822 25.1426 179.822 27.888C179.961 32.1624 183.453 35.568 187.727 35.6028C187.744 37.7226 187.727 39.8425 187.727 41.9623C179.943 41.9102 173.619 35.6897 173.463 27.9054C173.445 21.7023 173.497 15.4818 173.445 9.24389ZM222.458 2.79752C224.577 2.78014 226.714 2.79752 228.834 2.79752C228.816 4.9521 228.834 7.10668 228.834 9.26127C226.714 9.24389 224.595 9.26127 222.458 9.26127C222.492 7.10668 222.492 4.9521 222.458 2.79752Z" fill="#5A5B5C"/>
<path d="M20.901 22.0845L20.9184 22.0324C26.2348 22.015 31.5339 22.0324 36.8504 22.0324C38.6399 21.9976 40.3252 22.8143 41.4371 24.2043C42.1495 25.0905 42.3927 26.2199 42.7576 27.2625C44.4255 32.4057 46.1108 37.5489 47.7787 42.6921C48.1435 43.8736 48.63 45.0725 48.491 46.3236C48.1435 47.7658 46.8926 48.843 45.4853 49.2253C43.8348 49.3296 42.1842 49.2427 40.5163 49.2774C31.2559 49.2774 21.9782 49.2774 12.7178 49.2601C12.075 49.2427 11.4148 49.3296 10.7719 49.1906C14.1772 40.1726 17.5652 31.1372 20.901 22.0845Z" fill="#396600"/>
</g>
<defs>
<clipPath id="clip0_1007_38000">
<rect width="261" height="56.5926" fill="white"/>
</clipPath>
</defs>
</svg>
